<?xml version="1.0" encoding="utf-8"?>
<!-- Generator: Adobe Illustrator 19.2.1, SVG Export Plug-In . SVG Version: 6.00 Build 0)  -->
<svg version="1.1" id="Ebene_2" xmlns="http://www.w3.org/2000/svg" xmlns:xlink="http://www.w3.org/1999/xlink" x="0px" y="0px"
	 viewBox="0 0 485.3 123.3" style="enable-background:new 0 0 485.3 123.3;" xml:space="preserve">
<style type="text/css">
	.st0{fill:#FFFFFF;}
	.st1{fill:#46AFF3;}
</style>
<path class="st0" d="M13.1,77.8C8,72.7,5.4,66.6,5.4,59.4c0-7.2,2.6-13.3,7.7-18.4c5.1-5.1,11.2-7.6,18.4-7.6
	c5.9,0,11.2,1.8,15.9,5.4c0.5,0.4,0.8,0.9,0.8,1.5c0.1,0.6,0,1.1-0.4,1.6c-0.4,0.5-0.8,0.8-1.5,0.8c-0.6,0.1-1.1-0.1-1.6-0.4
	c-3.9-3-8.3-4.5-13.2-4.5c-6,0-11.1,2.1-15.3,6.4c-4.2,4.2-6.4,9.3-6.4,15.3c0,6,2.1,11.1,6.4,15.3s9.3,6.4,15.3,6.4
	c5.6,0,10.5-1.9,14.6-5.6c0.5-0.4,1-0.6,1.6-0.6c0.6,0,1.1,0.3,1.5,0.7c0.4,0.4,0.6,1,0.5,1.6c0,0.6-0.3,1.1-0.7,1.5
	c-5,4.5-10.8,6.8-17.6,6.8C24.3,85.5,18.1,82.9,13.1,77.8z M46.4,84.8c-0.4-0.4-0.6-0.9-0.6-1.5v-23H27.6c-0.6,0-1.1-0.2-1.6-0.6
	c-0.4-0.4-0.7-1-0.7-1.6c0-0.6,0.2-1.1,0.7-1.5c0.4-0.4,1-0.7,1.6-0.7H48c0.6,0,1.1,0.2,1.6,0.7c0.4,0.4,0.6,0.9,0.6,1.5v25.2
	c0,0.6-0.2,1.1-0.6,1.5c-0.4,0.4-1,0.7-1.6,0.7S46.9,85.2,46.4,84.8z"/>
<path class="st0" d="M61,85.5c-0.6-0.2-0.9-0.6-1.2-1.2c-0.2-0.6-0.2-1.1,0-1.7l5-12.2v0L79.5,35c0-0.1,0.1-0.3,0.2-0.4l0.1-0.1
	c0.1-0.1,0.1-0.2,0.1-0.2c0,0,0.1-0.1,0.2-0.1c0.1-0.1,0.2-0.1,0.1-0.1c0.2-0.2,0.5-0.3,0.8-0.3h0.2c0.1,0,0.2,0,0.3,0s0.1,0,0.2,0
	c0.1,0,0.2,0,0.2,0c0.3,0,0.6,0.2,0.8,0.3l0.1,0.1c0.1,0.1,0.2,0.1,0.2,0.1c0,0,0.1,0.1,0.1,0.2c0.1,0.1,0.1,0.2,0.1,0.1
	c0.1,0.1,0.1,0.3,0.2,0.4l14.7,35.5v0l5,12.2c0.2,0.6,0.2,1.1,0,1.7c-0.2,0.6-0.6,0.9-1.2,1.2c-0.3,0.1-0.5,0.2-0.8,0.2
	c-1,0-1.6-0.4-2-1.3l-4.5-10.8H68.3l-4.5,10.8c-0.4,0.9-1,1.3-2,1.3c-0.3,0-0.4,0-0.4,0S61.2,85.6,61,85.5z M93,69.2L81.5,41.5
	L70.1,69.2H93z"/>
<path class="st0" d="M125.3,61.6c-5.8-0.1-10.2-1.7-13.1-4.8c-2.4-2.5-3.5-5.4-3.3-8.7c0.2-4.1,1.9-7.5,5-10.4
	c3.1-2.8,6.8-4.2,11.1-4.2c3.8,0,7.2,0.8,10.2,2.4c3.6,1.9,5.9,4.6,6.8,8.2c0.1,0.6,0.1,1.1-0.2,1.6c-0.3,0.5-0.8,0.8-1.3,1
	c-0.6,0.2-1.1,0.1-1.6-0.2c-0.5-0.3-0.8-0.7-1-1.3c-0.7-2.5-2.3-4.4-5.1-5.7c-2.3-1.1-4.9-1.7-7.8-1.7c-3.2,0-5.9,1-8.2,3
	c-2.3,2-3.5,4.5-3.6,7.5c-0.1,2.1,0.6,3.9,2.2,5.6c2.1,2.2,5.5,3.4,10.1,3.5c0.6,0,1.1,0.2,1.5,0.7c0.4,0.4,0.6,1,0.6,1.6
	c0,0.6-0.2,1.1-0.7,1.5C126.4,61.4,125.9,61.6,125.3,61.6L125.3,61.6z M115.7,83.1c-3.6-1.9-5.9-4.7-6.8-8.3
	c-0.1-0.6-0.1-1.1,0.2-1.6c0.3-0.5,0.8-0.8,1.3-1c0.6-0.1,1.1-0.1,1.6,0.2c0.5,0.3,0.8,0.8,1,1.3c0.7,2.5,2.3,4.4,5.1,5.8
	c2.3,1.1,4.9,1.6,7.8,1.6c3.2,0,5.9-1,8.2-3c2.3-2,3.5-4.5,3.6-7.4c0.1-2.1-0.6-4-2.2-5.6c-2.1-2.2-5.5-3.4-10.1-3.5
	c-0.6,0-1.1-0.2-1.5-0.7c-0.4-0.4-0.6-0.9-0.6-1.5c0-0.6,0.3-1.1,0.7-1.5c0.4-0.4,0.9-0.6,1.5-0.6c5.8,0.1,10.2,1.7,13.1,4.9
	c2.4,2.5,3.5,5.4,3.3,8.7c-0.2,4.1-1.8,7.5-4.9,10.4c-3.1,2.8-6.8,4.2-11.1,4.2C122.1,85.5,118.7,84.7,115.7,83.1z"/>
<path class="st0" d="M164.7,37.7h-14.3c-0.6,0-1.1-0.2-1.6-0.6c-0.4-0.4-0.6-0.9-0.6-1.5c0-0.6,0.2-1.1,0.6-1.5
	c0.4-0.4,1-0.7,1.6-0.7h33c0.6,0,1.1,0.2,1.5,0.7c0.4,0.4,0.7,0.9,0.7,1.5c0,0.6-0.2,1.1-0.7,1.5c-0.4,0.4-0.9,0.6-1.5,0.6H169v45.6
	c0,0.6-0.2,1.1-0.6,1.6c-0.4,0.4-1,0.6-1.6,0.6c-0.6,0-1.1-0.2-1.5-0.6c-0.4-0.4-0.6-1-0.6-1.6V37.7z"/>
<path class="st0" d="M196.4,85.5c-0.6,0-1.1-0.2-1.5-0.7c-0.4-0.4-0.7-0.9-0.7-1.5V35.5c0-0.6,0.2-1.1,0.7-1.5
	c0.4-0.5,0.9-0.7,1.5-0.7l28.8,0.1c0.6,0,1.1,0.2,1.5,0.7c0.4,0.4,0.7,0.9,0.7,1.5c0,0.6-0.2,1.1-0.7,1.6c-0.4,0.4-0.9,0.6-1.5,0.6
	l-26.6-0.1v19.5h19.9c0.6,0,1.1,0.2,1.5,0.7c0.4,0.4,0.7,0.9,0.7,1.5c0,0.6-0.2,1.1-0.7,1.5c-0.4,0.4-0.9,0.7-1.5,0.7h-19.9v19.5
	h26.6c0.6,0,1.1,0.2,1.5,0.7c0.4,0.4,0.7,0.9,0.7,1.5c0,0.6-0.2,1.1-0.7,1.5c-0.4,0.4-0.9,0.7-1.5,0.7H196.4z"/>
<path class="st0" d="M256.7,85.5c-7.2,0-13.3-2.6-18.4-7.7c-5.1-5.1-7.7-11.2-7.7-18.4c0-7.2,2.6-13.4,7.7-18.4
	c5.1-5.1,11.2-7.7,18.4-7.7c5.9,0,11.2,1.8,15.9,5.4c0.5,0.4,0.8,0.8,0.8,1.5c0.1,0.6-0.1,1.1-0.4,1.6c-0.4,0.5-0.8,0.8-1.5,0.8
	c-0.6,0.1-1.1,0-1.6-0.4c-3.9-3-8.3-4.5-13.2-4.5c-6,0-11.1,2.1-15.3,6.4c-4.2,4.2-6.4,9.4-6.4,15.4c0,6,2.1,11.1,6.4,15.3
	c4.2,4.2,9.3,6.4,15.3,6.4c5.6,0,10.5-1.9,14.6-5.6c0.4-0.4,1-0.6,1.6-0.6c0.6,0,1.1,0.3,1.5,0.7c0.4,0.4,0.6,1,0.6,1.6
	c0,0.6-0.3,1.1-0.7,1.5C269.3,83.2,263.5,85.5,256.7,85.5z"/>
<path class="st0" d="M298.7,37.7h-14.3c-0.6,0-1.1-0.2-1.6-0.6c-0.4-0.4-0.6-0.9-0.6-1.5c0-0.6,0.2-1.1,0.6-1.5
	c0.4-0.4,1-0.7,1.6-0.7h33c0.6,0,1.1,0.2,1.5,0.7c0.4,0.4,0.7,0.9,0.7,1.5c0,0.6-0.2,1.1-0.7,1.5c-0.4,0.4-0.9,0.6-1.5,0.6H303v45.6
	c0,0.6-0.2,1.1-0.6,1.6c-0.4,0.4-1,0.6-1.6,0.6c-0.6,0-1.1-0.2-1.5-0.6c-0.4-0.4-0.6-1-0.6-1.6V37.7z"/>
<path class="st1" d="M380.1,114.9c-14.7,0-27.3-5.2-37.7-15.6c-10.4-10.4-15.6-23-15.6-37.7s5.2-27.3,15.6-37.7
	c10.4-10.4,23-15.6,37.7-15.6s27.3,5.2,37.7,15.6c10.4,10.4,15.6,23,15.6,37.7s-5.2,27.3-15.6,37.7
	C407.4,109.7,394.8,114.9,380.1,114.9z M380.1,17.1c-12.3,0-22.7,4.4-31.4,13.1c-8.7,8.7-13,19.2-13,31.4s4.3,22.7,13,31.4
	s19.2,13,31.4,13c12.3,0,22.7-4.3,31.4-13c8.7-8.7,13.1-19.2,13.1-31.4s-4.4-22.7-13.1-31.4C402.8,21.4,392.3,17.1,380.1,17.1z"/>
<path class="st0" d="M463.6,33.5c4.2,0,7.8,1.4,10.7,4.1c3,2.7,4.4,6,4.4,9.9c0,3.4-1.2,6.5-3.6,9.1c-2.4,2.6-5.4,4.2-9,4.7
	l10.3,21.1c0.3,0.5,0.3,1.1,0.1,1.6c-0.2,0.6-0.6,1-1.1,1.2c-0.3,0.1-0.6,0.2-0.9,0.2c-0.9,0-1.5-0.4-1.9-1.2l-11.2-22.8h-12.1V83
	c0,0.6-0.2,1.1-0.7,1.5c-0.4,0.4-0.9,0.6-1.5,0.6c-0.6,0-1.1-0.2-1.5-0.6c-0.4-0.4-0.6-0.9-0.6-1.5V35.6c0-0.6,0.2-1.1,0.6-1.5
	c0.4-0.4,0.9-0.6,1.5-0.6H463.6z M474.5,47.5c0-2.7-1.1-5-3.2-6.9c-2.1-1.9-4.7-2.9-7.7-2.9h-14.3v19.4h14.5c3,0,5.5-1,7.5-2.9
	C473.4,52.4,474.5,50.1,474.5,47.5z"/>
</svg>
